<?xml version="1.0" standalone="no"?>
<!DOCTYPE svg PUBLIC "-//W3C//DTD SVG 20010904//EN"
 "http://www.w3.org/TR/2001/REC-SVG-20010904/DTD/svg10.dtd">
<svg version="1.0" xmlns="http://www.w3.org/2000/svg"
 width="197.000000pt" height="180.000000pt" viewBox="0 0 197.000000 180.000000"
 preserveAspectRatio="xMidYMid meet">

<g transform="translate(0.000000,180.000000) scale(0.100000,-0.100000)"
fill="#000000" stroke="none">
<path d="M1674 1658 c-387 -268 -678 -544 -824 -782 -51 -84 -96 -194 -105
-258 -8 -56 -16 -54 110 -33 336 55 729 4 994 -130 39 -19 73 -35 76 -35 4 0
5 240 3 533 -3 529 -3 532 -26 590 -25 60 -89 149 -121 166 -15 9 -35 -1 -107
-51z"/>
<path d="M1090 299 c-52 -5 -165 -21 -250 -35 -256 -43 -665 -153 -657 -177 2
-7 34 -28 72 -47 l68 -35 661 0 661 0 58 28 c66 33 141 103 175 165 l23 42
-27 11 c-16 5 -80 19 -143 31 -134 23 -481 33 -641 17z"/>
</g>
</svg>
